<svg height='300px' width='300px'  fill="#000000" xmlns="http://www.w3.org/2000/svg" data-name="Слой 1" viewBox="0 0 128 128" x="0px" y="0px"><title>scan,  scanner, search , card, photo</title><path d="M2,36.71a2,2,0,0,1-2-2V2A2,2,0,0,1,2,0H34.71a2,2,0,0,1,0,4H4V34.71A2,2,0,0,1,2,36.71Z"></path><path d="M126,128H93.29a2,2,0,0,1,0-4H124V93.29a2,2,0,0,1,4,0V126A2,2,0,0,1,126,128Z"></path><path d="M126,36.71a2,2,0,0,1-2-2V4H93.29a2,2,0,0,1,0-4H126a2,2,0,0,1,2,2V34.71A2,2,0,0,1,126,36.71Z"></path><path d="M34.71,128H2a2,2,0,0,1-2-2V93.29a2,2,0,0,1,4,0V124H34.71a2,2,0,1,1,0,4Z"></path><path d="M105.33,97H22.67a8.9,8.9,0,0,1-8.89-8.89V39.89A8.9,8.9,0,0,1,22.67,31h82.67a8.9,8.9,0,0,1,8.89,8.89V88.11A8.9,8.9,0,0,1,105.33,97ZM22.67,35a4.89,4.89,0,0,0-4.89,4.89V88.11A4.89,4.89,0,0,0,22.67,93h82.67a4.89,4.89,0,0,0,4.89-4.89V39.89A4.89,4.89,0,0,0,105.33,35Z"></path><path d="M42.71,69H31.56a4,4,0,0,1-4-4V56.36a4,4,0,0,1,4-4H42.71a4,4,0,0,1,4,4V65A4,4,0,0,1,42.71,69ZM31.56,56.36V65H42.71V56.36Z"></path><path d="M63.08,83.22H29.33a2,2,0,0,1,0-4H63.08a2,2,0,1,1,0,4Z"></path><path d="M79.8,83.22H70a2,2,0,0,1,0-4H79.8a2,2,0,0,1,0,4Z"></path><path d="M78.44,67.53a2,2,0,0,1-1.63-3.15,6.44,6.44,0,0,0,0-7.41,2,2,0,0,1,3.27-2.3,10.44,10.44,0,0,1,0,12A2,2,0,0,1,78.44,67.53Z"></path><path d="M84,70.41a2,2,0,0,1-1.7-3.05,12.71,12.71,0,0,0,0-13.36,2,2,0,1,1,3.4-2.11,16.72,16.72,0,0,1,0,17.58A2,2,0,0,1,84,70.41Z"></path><path d="M89.86,73.4a2,2,0,0,1-1.72-3,19.26,19.26,0,0,0,0-19.44,2,2,0,0,1,3.45-2,23.26,23.26,0,0,1,0,23.49A2,2,0,0,1,89.86,73.4Z"></path><path d="M95.92,76.52a2,2,0,0,1-1.74-3,26.08,26.08,0,0,0,0-25.72,2,2,0,0,1,3.48-2,30.08,30.08,0,0,1,0,29.68A2,2,0,0,1,95.92,76.52Z"></path></svg>